# xmcd CD database file
#
# Track frame offsets:
#	150
#	16452
#	32422
#	45887
#	57927
#	71615
#	86350
#	99112
#	111312
#	125557
#
# Disc length: 1852 seconds
#
# Revision: 1
# Processed by: cddbd v1.5.1PL0 Copyright (c) Steve Scherf et al.
# Submitted via: CDex 1.50
#
DISCID=73073a0a
DTITLE=Loretta Lynn - Making More Memories
DYEAR=1900
DGENRE=Country
TTITLE0=We Need To Make More Memories
TTITLE1=Until I Met You
TTITLE2=God Bless The Children
TTITLE3=Love Is The Foundation
TTITLE4=Ships Still Come In
TTITLE5=One Day (Let's Take The Time)
TTITLE6=Brand New Ray Of Sunshine
TTITLE7=What Eyes You're Looking Through
TTITLE8=You Make Me Want To Walk On Water
TTITLE9=Jesus Rocks Me
EXTD=Produced by Kenny Starr for Nashville Sound Records
EXTT0=
EXTT1=
EXTT2=
EXTT3=
EXTT4=
EXTT5=
EXTT6=
EXTT7=
EXTT8=
EXTT9=
PLAYORDER=
